<?xml version="1.0" encoding="utf-8"?>
<svg viewBox="0 0 500 500" style="shape-rendering: geometricprecision;" xmlns="http://www.w3.org/2000/svg">
  <g transform="matrix(0.5686100125312805, 0, 0, 0.6587660908699036, -5.542095266909769, 171.2860895884943)" style="">
    <path style="opacity: 0.995; fill: rgb(197, 125, 122);" d="M 447.5,-0.5 C 589.167,-0.5 730.833,-0.5 872.5,-0.5C 872.5,25.8333 872.5,52.1667 872.5,78.5C 730.833,78.5 589.167,78.5 447.5,78.5C 447.5,52.1667 447.5,25.8333 447.5,-0.5 Z"/>
  </g>
  <g transform="matrix(0.5686100125312805, 0, 0, 0.6587660908699036, -5.542095266909769, 171.2860895884943)" style="">
    <path style="opacity: 0.876; fill: rgb(197, 125, 122);" d="M 28.5,13.5 C 34.352,12.8608 39.852,13.8608 45,16.5C 46.049,14.8934 47.549,14.2267 49.5,14.5C 49.5,18.5 49.5,22.5 49.5,26.5C 46.1405,27.2096 44.3071,25.8762 44,22.5C 39.8604,17.7886 34.6938,16.2886 28.5,18C 24.7084,20.0527 23.5418,23.2194 25,27.5C 27.2336,29.6998 29.7336,31.5331 32.5,33C 38.1122,35.1394 43.4455,37.8061 48.5,41C 54.7387,50.3022 53.072,57.9689 43.5,64C 35.5593,66.49 28.0593,65.6567 21,61.5C 20.5172,62.448 20.3505,63.448 20.5,64.5C 18.8333,64.5 17.1667,64.5 15.5,64.5C 15.5,60.1667 15.5,55.8333 15.5,51.5C 19.7303,50.5628 22.2303,52.2295 23,56.5C 27.5744,61.15 33.0744,62.65 39.5,61C 45.4145,57.9898 46.0812,53.9898 41.5,49C 35.1667,46 28.8333,43 22.5,40C 14.8616,33.4769 13.8616,26.1436 19.5,18C 22.4375,16.1991 25.4375,14.6991 28.5,13.5 Z"/>
  </g>
  <g transform="matrix(0.5686100125312805, 0, 0, 0.6587660908699036, -5.542095266909769, 171.2860895884943)" style="">
    <path style="opacity: 0.889; fill: rgb(197, 125, 122);" d="M 234.5,13.5 C 239.646,13.1808 244.646,13.8475 249.5,15.5C 251.409,14.6518 253.409,14.3184 255.5,14.5C 255.5,18.5 255.5,22.5 255.5,26.5C 253.833,26.5 252.167,26.5 250.5,26.5C 250.21,22.0388 247.877,19.2055 243.5,18C 238.243,16.5739 233.743,17.7406 230,21.5C 229.132,25.6717 230.632,28.8383 234.5,31C 242.536,33.7648 249.703,37.9314 256,43.5C 259.846,54.3068 256.346,61.4735 245.5,65C 239.072,66.0221 232.905,65.1888 227,62.5C 225.403,63.8847 223.57,64.5514 221.5,64.5C 221.5,60.1667 221.5,55.8333 221.5,51.5C 223.288,51.2148 224.955,51.5481 226.5,52.5C 230.444,60.4336 236.777,63.267 245.5,61C 250.778,56.8419 250.778,52.5085 245.5,48C 237.578,45.4786 230.411,41.6453 224,36.5C 218.329,24.5144 221.829,16.8478 234.5,13.5 Z"/>
  </g>
  <g transform="matrix(0.5686100125312805, 0, 0, 0.6587660908699036, -5.542095266909769, 171.2860895884943)" style="">
    <path style="opacity: 0.891; fill: rgb(197, 125, 122);" d="M 74.5,14.5 C 81.5,14.5 88.5,14.5 95.5,14.5C 95.5,15.5 95.5,16.5 95.5,17.5C 93.5,17.5 91.5,17.5 89.5,17.5C 89.5,24.1667 89.5,30.8333 89.5,37.5C 97.1667,37.5 104.833,37.5 112.5,37.5C 112.5,30.8333 112.5,24.1667 112.5,17.5C 110.833,17.5 109.167,17.5 107.5,17.5C 107.5,16.5 107.5,15.5 107.5,14.5C 114.5,14.5 121.5,14.5 128.5,14.5C 128.5,15.5 128.5,16.5 128.5,17.5C 126.833,17.5 125.167,17.5 123.5,17.5C 123.5,32.1667 123.5,46.8333 123.5,61.5C 125.167,61.5 126.833,61.5 128.5,61.5C 128.5,62.5 128.5,63.5 128.5,64.5C 121.5,64.5 114.5,64.5 107.5,64.5C 107.5,63.5 107.5,62.5 107.5,61.5C 109.167,61.5 110.833,61.5 112.5,61.5C 112.5,54.5 112.5,47.5 112.5,40.5C 104.833,40.5 97.1667,40.5 89.5,40.5C 89.5,47.5 89.5,54.5 89.5,61.5C 91.5,61.5 93.5,61.5 95.5,61.5C 95.5,62.5 95.5,63.5 95.5,64.5C 88.5,64.5 81.5,64.5 74.5,64.5C 74.5,63.5 74.5,62.5 74.5,61.5C 76.1667,61.5 77.8333,61.5 79.5,61.5C 79.5,46.8333 79.5,32.1667 79.5,17.5C 77.8333,17.5 76.1667,17.5 74.5,17.5C 74.5,16.5 74.5,15.5 74.5,14.5 Z"/>
  </g>
  <g transform="matrix(0.5686100125312805, 0, 0, 0.6587660908699036, -5.542095266909769, 171.2860895884943)" style="">
    <path style="opacity: 0.876; fill: rgb(197, 125, 122);" d="M 149.5,14.5 C 163.833,14.5 178.167,14.5 192.5,14.5C 192.5,19.5 192.5,24.5 192.5,29.5C 191.167,29.5 189.833,29.5 188.5,29.5C 189.1,25.4836 188.1,21.9836 185.5,19C 178.924,17.6226 172.257,17.1226 165.5,17.5C 165.5,24.1667 165.5,30.8333 165.5,37.5C 169.605,37.7662 173.605,37.2662 177.5,36C 178.38,34.6439 178.714,33.1439 178.5,31.5C 180.167,31.5 181.833,31.5 183.5,31.5C 183.5,37.1667 183.5,42.8333 183.5,48.5C 181.833,48.5 180.167,48.5 178.5,48.5C 178.756,46.2075 178.423,44.0408 177.5,42C 173.637,40.6463 169.637,40.1463 165.5,40.5C 165.5,47.5 165.5,54.5 165.5,61.5C 171.176,61.6661 176.843,61.4994 182.5,61C 187.481,58.8851 189.814,55.0518 189.5,49.5C 190.833,49.5 192.167,49.5 193.5,49.5C 193.5,54.5 193.5,59.5 193.5,64.5C 178.833,64.5 164.167,64.5 149.5,64.5C 149.5,63.5 149.5,62.5 149.5,61.5C 151.5,61.5 153.5,61.5 155.5,61.5C 155.5,46.8333 155.5,32.1667 155.5,17.5C 153.5,17.5 151.5,17.5 149.5,17.5C 149.5,16.5 149.5,15.5 149.5,14.5 Z"/>
  </g>
  <g transform="matrix(0.5686100125312805, 0, 0, 0.6587660908699036, -5.542095266909769, 171.2860895884943)" style="">
    <path style="opacity: 0.885; fill: rgb(197, 125, 122);" d="M 280.5,14.5 C 287.5,14.5 294.5,14.5 301.5,14.5C 301.5,15.5 301.5,16.5 301.5,17.5C 299.5,17.5 297.5,17.5 295.5,17.5C 295.5,24.1667 295.5,30.8333 295.5,37.5C 303.167,37.5 310.833,37.5 318.5,37.5C 318.5,30.8333 318.5,24.1667 318.5,17.5C 316.5,17.5 314.5,17.5 312.5,17.5C 312.5,16.5 312.5,15.5 312.5,14.5C 319.5,14.5 326.5,14.5 333.5,14.5C 333.5,15.5 333.5,16.5 333.5,17.5C 331.833,17.5 330.167,17.5 328.5,17.5C 328.5,32.1667 328.5,46.8333 328.5,61.5C 330.167,61.5 331.833,61.5 333.5,61.5C 333.5,62.5 333.5,63.5 333.5,64.5C 326.5,64.5 319.5,64.5 312.5,64.5C 312.5,63.5 312.5,62.5 312.5,61.5C 314.5,61.5 316.5,61.5 318.5,61.5C 318.5,54.5 318.5,47.5 318.5,40.5C 310.833,40.5 303.167,40.5 295.5,40.5C 295.5,47.5 295.5,54.5 295.5,61.5C 297.167,61.5 298.833,61.5 300.5,61.5C 300.5,62.5 300.5,63.5 300.5,64.5C 293.833,64.5 287.167,64.5 280.5,64.5C 280.5,63.5 280.5,62.5 280.5,61.5C 282.167,61.5 283.833,61.5 285.5,61.5C 285.5,46.8333 285.5,32.1667 285.5,17.5C 283.833,17.5 282.167,17.5 280.5,17.5C 280.5,16.5 280.5,15.5 280.5,14.5 Z"/>
  </g>
  <g transform="matrix(0.5686100125312805, 0, 0, 0.6587660908699036, -5.542095266909769, 171.2860895884943)" style="">
    <path style="opacity: 0.877; fill: rgb(197, 125, 122);" d="M 354.5,14.5 C 369.167,14.5 383.833,14.5 398.5,14.5C 398.5,19.5 398.5,24.5 398.5,29.5C 397.167,29.5 395.833,29.5 394.5,29.5C 394.929,25.5413 393.929,22.0413 391.5,19C 384.924,17.6226 378.257,17.1226 371.5,17.5C 371.5,24.1667 371.5,30.8333 371.5,37.5C 375.605,37.7662 379.605,37.2662 383.5,36C 384.38,34.6439 384.714,33.1439 384.5,31.5C 386.167,31.5 387.833,31.5 389.5,31.5C 389.5,37.1667 389.5,42.8333 389.5,48.5C 387.833,48.5 386.167,48.5 384.5,48.5C 384.838,45.8431 384.171,43.5098 382.5,41.5C 378.906,40.5741 375.24,40.2408 371.5,40.5C 371.5,47.5 371.5,54.5 371.5,61.5C 377.176,61.6661 382.843,61.4994 388.5,61C 393.478,58.8409 395.811,55.0075 395.5,49.5C 396.833,49.5 398.167,49.5 399.5,49.5C 399.5,54.5 399.5,59.5 399.5,64.5C 384.5,64.5 369.5,64.5 354.5,64.5C 354.5,63.5 354.5,62.5 354.5,61.5C 356.833,61.5 359.167,61.5 361.5,61.5C 361.5,46.8333 361.5,32.1667 361.5,17.5C 359.167,17.5 356.833,17.5 354.5,17.5C 354.5,16.5 354.5,15.5 354.5,14.5 Z"/>
  </g>
  <g transform="matrix(0.5686100125312805, 0, 0, 0.6587660908699036, -5.542095266909769, 171.2860895884943)" style="">
    <path style="opacity: 1; fill: rgb(207, 194, 192);" d="M 487.5,13.5 C 493.581,13.1037 499.248,14.4371 504.5,17.5C 505.695,15.703 507.362,14.703 509.5,14.5C 509.5,19.1667 509.5,23.8333 509.5,28.5C 508.325,28.719 507.325,28.3857 506.5,27.5C 501.519,17.3412 493.852,14.5079 483.5,19C 477.821,24.1888 475.155,30.6888 475.5,38.5C 475.944,45.2815 477.777,51.6148 481,57.5C 490.722,64.5785 499.722,63.5785 508,54.5C 508.692,55.0253 509.192,55.6919 509.5,56.5C 504.61,62.3614 498.277,65.3614 490.5,65.5C 471.205,62.9489 463.038,51.9489 466,32.5C 469.341,21.6501 476.507,15.3168 487.5,13.5 Z"/>
  </g>
  <g transform="matrix(0.5686100125312805, 0, 0, 0.6587660908699036, -5.542095266909769, 171.2860895884943)" style="">
    <path style="opacity: 1; fill: rgb(207, 194, 192);" d="M 532.5,14.5 C 539.167,14.5 545.833,14.5 552.5,14.5C 552.5,15.5 552.5,16.5 552.5,17.5C 550.5,17.5 548.5,17.5 546.5,17.5C 546.5,24.1667 546.5,30.8333 546.5,37.5C 554.5,37.5 562.5,37.5 570.5,37.5C 570.5,30.8333 570.5,24.1667 570.5,17.5C 568.833,17.5 567.167,17.5 565.5,17.5C 565.5,16.5 565.5,15.5 565.5,14.5C 572.167,14.5 578.833,14.5 585.5,14.5C 585.5,15.5 585.5,16.5 585.5,17.5C 583.5,17.5 581.5,17.5 579.5,17.5C 579.5,32.1667 579.5,46.8333 579.5,61.5C 581.5,61.5 583.5,61.5 585.5,61.5C 585.5,62.5 585.5,63.5 585.5,64.5C 578.833,64.5 572.167,64.5 565.5,64.5C 565.5,63.5 565.5,62.5 565.5,61.5C 567.167,61.5 568.833,61.5 570.5,61.5C 570.5,54.5 570.5,47.5 570.5,40.5C 562.5,40.5 554.5,40.5 546.5,40.5C 546.5,47.5 546.5,54.5 546.5,61.5C 548.5,61.5 550.5,61.5 552.5,61.5C 552.5,62.5 552.5,63.5 552.5,64.5C 545.833,64.5 539.167,64.5 532.5,64.5C 532.5,63.5 532.5,62.5 532.5,61.5C 534.167,61.5 535.833,61.5 537.5,61.5C 537.5,46.8333 537.5,32.1667 537.5,17.5C 535.833,17.5 534.167,17.5 532.5,17.5C 532.5,16.5 532.5,15.5 532.5,14.5 Z"/>
  </g>
  <g transform="matrix(0.5686100125312805, 0, 0, 0.6587660908699036, -5.542095266909769, 171.2860895884943)" style="">
    <path style="opacity: 1; fill: rgb(207, 194, 192);" d="M 607.5,14.5 C 621.5,14.5 635.5,14.5 649.5,14.5C 649.5,19.5 649.5,24.5 649.5,29.5C 648.5,29.5 647.5,29.5 646.5,29.5C 647.231,25.3966 646.231,21.8966 643.5,19C 636.615,17.5753 629.615,17.0753 622.5,17.5C 622.5,24.1667 622.5,30.8333 622.5,37.5C 626.182,37.6653 629.848,37.4986 633.5,37C 636.035,36.0718 637.035,34.2385 636.5,31.5C 637.833,31.5 639.167,31.5 640.5,31.5C 640.5,37.1667 640.5,42.8333 640.5,48.5C 639.167,48.5 637.833,48.5 636.5,48.5C 636.945,45.6354 636.278,43.1354 634.5,41C 630.514,40.5012 626.514,40.3345 622.5,40.5C 622.5,47.5 622.5,54.5 622.5,61.5C 628.842,61.6662 635.175,61.4995 641.5,61C 645.662,58.3784 647.662,54.545 647.5,49.5C 648.5,49.5 649.5,49.5 650.5,49.5C 650.5,54.5 650.5,59.5 650.5,64.5C 636.167,64.5 621.833,64.5 607.5,64.5C 607.5,63.5 607.5,62.5 607.5,61.5C 609.5,61.5 611.5,61.5 613.5,61.5C 613.5,46.8333 613.5,32.1667 613.5,17.5C 611.5,17.5 609.5,17.5 607.5,17.5C 607.5,16.5 607.5,15.5 607.5,14.5 Z"/>
  </g>
  <g transform="matrix(0.5686100125312805, 0, 0, 0.6587660908699036, -5.542095266909769, 171.2860895884943)" style="">
    <path style="opacity: 1; fill: rgb(207, 194, 192);" d="M 675.5,14.5 C 685.506,14.3335 695.506,14.5002 705.5,15C 716.566,17.6318 719.732,24.1318 715,34.5C 712.771,37.3639 709.937,39.3639 706.5,40.5C 708.793,41.6261 710.96,42.9594 713,44.5C 715.59,49.2722 717.59,54.2722 719,59.5C 720.444,61.1554 722.278,61.822 724.5,61.5C 724.5,62.5 724.5,63.5 724.5,64.5C 719.703,64.8789 715.036,64.3789 710.5,63C 708.376,56.6598 705.876,50.4931 703,44.5C 699.248,41.9231 695.081,40.9231 690.5,41.5C 690.5,48.1667 690.5,54.8333 690.5,61.5C 692.833,61.5 695.167,61.5 697.5,61.5C 697.5,62.5 697.5,63.5 697.5,64.5C 690.167,64.5 682.833,64.5 675.5,64.5C 675.5,63.5 675.5,62.5 675.5,61.5C 677.5,61.5 679.5,61.5 681.5,61.5C 681.5,46.8333 681.5,32.1667 681.5,17.5C 679.5,17.5 677.5,17.5 675.5,17.5C 675.5,16.5 675.5,15.5 675.5,14.5 Z"/>
  </g>
  <g transform="matrix(0.5686100125312805, 0, 0, 0.6587660908699036, -5.542095266909769, 171.2860895884943)" style="">
    <path style="opacity: 1; fill: rgb(207, 194, 192);" d="M 744.5,14.5 C 754.172,14.3335 763.839,14.5002 773.5,15C 783.223,16.3904 787.057,21.8904 785,31.5C 783.412,36.0519 780.245,38.8852 775.5,40C 782.316,45.1173 786.483,51.9507 788,60.5C 789.356,61.3802 790.856,61.7135 792.5,61.5C 792.5,62.5 792.5,63.5 792.5,64.5C 788.033,64.8674 783.7,64.3674 779.5,63C 778.299,62.0975 777.465,60.9308 777,59.5C 776.043,55.0443 774.71,50.7109 773,46.5C 769.219,42.0102 764.386,40.3435 758.5,41.5C 758.5,48.1667 758.5,54.8333 758.5,61.5C 761.167,61.5 763.833,61.5 766.5,61.5C 766.5,62.5 766.5,63.5 766.5,64.5C 759.167,64.5 751.833,64.5 744.5,64.5C 744.5,63.5 744.5,62.5 744.5,61.5C 746.167,61.5 747.833,61.5 749.5,61.5C 749.5,46.8333 749.5,32.1667 749.5,17.5C 747.833,17.5 746.167,17.5 744.5,17.5C 744.5,16.5 744.5,15.5 744.5,14.5 Z"/>
  </g>
  <g transform="matrix(0.5686100125312805, 0, 0, 0.6587660908699036, -5.542095266909769, 171.2860895884943)" style="">
    <path style="opacity: 1; fill: rgb(207, 194, 192);" d="M 810.5,14.5 C 817.5,14.5 824.5,14.5 831.5,14.5C 831.5,15.5 831.5,16.5 831.5,17.5C 829.473,17.3379 827.473,17.5045 825.5,18C 829.959,25.0836 834.292,32.2502 838.5,39.5C 842.708,32.2502 847.041,25.0836 851.5,18C 849.527,17.5045 847.527,17.3379 845.5,17.5C 845.5,16.5 845.5,15.5 845.5,14.5C 850.5,14.5 855.5,14.5 860.5,14.5C 860.5,15.5 860.5,16.5 860.5,17.5C 858.396,17.2011 856.396,17.5344 854.5,18.5C 850.2,26.628 845.7,34.628 841,42.5C 840.5,48.8246 840.334,55.1579 840.5,61.5C 842.833,61.5 845.167,61.5 847.5,61.5C 847.5,62.5 847.5,63.5 847.5,64.5C 839.833,64.5 832.167,64.5 824.5,64.5C 824.5,63.5 824.5,62.5 824.5,61.5C 826.833,61.5 829.167,61.5 831.5,61.5C 831.666,55.8236 831.499,50.1569 831,44.5C 825.634,35.9641 820.468,27.2974 815.5,18.5C 813.955,17.5481 812.288,17.2148 810.5,17.5C 810.5,16.5 810.5,15.5 810.5,14.5 Z"/>
  </g>
  <g transform="matrix(0.5686100125312805, 0, 0, 0.6587660908699036, -5.542095266909769, 171.2860895884943)" style="">
    <path style="opacity: 1; fill: rgb(197, 125, 122);" d="M 690.5,17.5 C 706.671,15.5292 711.338,21.8625 704.5,36.5C 700.036,38.3018 695.37,38.9684 690.5,38.5C 690.5,31.5 690.5,24.5 690.5,17.5 Z"/>
  </g>
  <g transform="matrix(0.5686100125312805, 0, 0, 0.6587660908699036, -5.542095266909769, 171.2860895884943)" style="">
    <path style="opacity: 1; fill: rgb(197, 125, 122);" d="M 758.5,17.5 C 775.138,15.6225 779.805,22.1225 772.5,37C 767.964,38.3789 763.297,38.8789 758.5,38.5C 758.5,31.5 758.5,24.5 758.5,17.5 Z"/>
  </g>
</svg>